<svg xmlns="http://www.w3.org/2000/svg" width="46" height="50" viewBox="0 0 46 50">
  <path fill="#FFF" d="M227.525,59.175 C227.325,59.175 227.125,59.125 226.95,59.025 C222.15,56.55 218,55.5 213.025,55.5 C208.075,55.5 203.375,56.675 199.1,59.025 C198.5,59.35 197.75,59.125 197.4,58.525 C197.075,57.925 197.3,57.15 197.9,56.825 C202.55,54.3 207.65,53 213.025,53 C218.35,53 223,54.175 228.1,56.8 C228.725,57.125 228.95,57.875 228.625,58.475 C228.4,58.925 227.975,59.175 227.525,59.175 Z M191.75,72.3 C191.5,72.3 191.25,72.225 191.025,72.075 C190.45,71.675 190.325,70.9 190.725,70.325 C193.2,66.825 196.35,64.075 200.1,62.15 C207.95,58.1 218,58.075 225.875,62.125 C229.625,64.05 232.775,66.775 235.25,70.25 C235.65,70.8 235.525,71.6 234.95,72 C234.375,72.4 233.6,72.275 233.2,71.7 C230.95,68.55 228.1,66.075 224.725,64.35 C217.55,60.675 208.375,60.675 201.225,64.375 C197.825,66.125 194.975,68.625 192.725,71.775 C192.525,72.125 192.15,72.3 191.75,72.3 Z M207.375,102.475 C207.05,102.475 206.725,102.35 206.5,102.1 C204.325,99.925 203.15,98.525 201.475,95.5 C199.75,92.425 198.85,88.675 198.85,84.65 C198.85,77.225 205.2,71.175 213,71.175 C220.8,71.175 227.15,77.225 227.15,84.65 C227.15,85.35 226.6,85.9 225.9,85.9 C225.2,85.9 224.65,85.35 224.65,84.65 C224.65,78.6 219.425,73.675 213,73.675 C206.575,73.675 201.35,78.6 201.35,84.65 C201.35,88.25 202.15,91.575 203.675,94.275 C205.275,97.15 206.375,98.375 208.3,100.325 C208.775,100.825 208.775,101.6 208.3,102.1 C208.025,102.35 207.7,102.475 207.375,102.475 Z M225.3,97.85 C222.325,97.85 219.7,97.1 217.55,95.625 C213.825,93.1 211.6,89 211.6,84.65 C211.6,83.95 212.15,83.4 212.85,83.4 C213.55,83.4 214.1,83.95 214.1,84.65 C214.1,88.175 215.9,91.5 218.95,93.55 C220.725,94.75 222.8,95.325 225.3,95.325 C225.9,95.325 226.9,95.25 227.9,95.075 C228.575,94.95 229.225,95.4 229.35,96.1 C229.475,96.775 229.025,97.425 228.325,97.55 C226.9,97.825 225.65,97.85 225.3,97.85 Z M220.275,103 C220.175,103 220.05,102.975 219.95,102.95 C215.975,101.85 213.375,100.375 210.65,97.7 C207.15,94.225 205.225,89.6 205.225,84.65 C205.225,80.6 208.675,77.3 212.925,77.3 C217.175,77.3 220.625,80.6 220.625,84.65 C220.625,87.325 222.95,89.5 225.825,89.5 C228.7,89.5 231.025,87.325 231.025,84.65 C231.025,75.225 222.9,67.575 212.9,67.575 C205.8,67.575 199.3,71.525 196.375,77.65 C195.4,79.675 194.9,82.05 194.9,84.65 C194.9,86.6 195.075,89.675 196.575,93.675 C196.825,94.325 196.5,95.05 195.85,95.275 C195.2,95.525 194.475,95.175 194.25,94.55 C193.025,91.275 192.425,88.025 192.425,84.65 C192.425,81.65 193,78.925 194.125,76.55 C197.45,69.575 204.825,65.05 212.9,65.05 C224.275,65.05 233.525,73.825 233.525,84.625 C233.525,88.675 230.075,91.975 225.825,91.975 C221.575,91.975 218.125,88.675 218.125,84.625 C218.125,81.95 215.8,79.775 212.925,79.775 C210.05,79.775 207.725,81.95 207.725,84.625 C207.725,88.9 209.375,92.9 212.4,95.9 C214.775,98.25 217.05,99.55 220.575,100.525 C221.25,100.7 221.625,101.4 221.45,102.05 C221.325,102.625 220.8,103 220.275,103 Z" transform="translate(-190 -53)"/>
</svg>
