<?xml version="1.0" standalone="no"?>
<!DOCTYPE svg PUBLIC "-//W3C//DTD SVG 20010904//EN"
 "http://www.w3.org/TR/2001/REC-SVG-20010904/DTD/svg10.dtd">
<svg version="1.0" xmlns="http://www.w3.org/2000/svg"
 width="800.000000pt" height="800.000000pt" viewBox="0 0 800.000000 800.000000"
 preserveAspectRatio="xMidYMid meet">
<metadata>
Created by potrace 1.11, written by Peter Selinger 2001-2013
</metadata>
<g transform="translate(0.000000,800.000000) scale(0.100000,-0.100000)"
fill="#000000" stroke="none">
<path d="M3718 7995 c-2 -2 -50 -6 -107 -10 -57 -4 -111 -8 -120 -10 -9 -1
-45 -6 -81 -9 -36 -4 -75 -8 -85 -10 -22 -4 -104 -16 -150 -22 -16 -2 -41 -6
-55 -9 -24 -5 -55 -11 -114 -21 -16 -3 -32 -7 -36 -9 -4 -3 -22 -6 -41 -9 -19
-2 -90 -18 -159 -36 -69 -18 -132 -33 -140 -35 -87 -21 -454 -147 -458 -157
-2 -5 -9 -8 -16 -8 -13 0 -95 -32 -216 -86 -136 -60 -375 -185 -402 -211 -15
-14 -33 -42 -39 -62 -6 -20 -15 -41 -20 -47 -5 -6 -6 -13 -3 -17 3 -3 8 -25
10 -49 14 -126 168 -203 284 -144 206 106 353 176 485 229 197 79 475 172 496
164 3 -1 13 4 22 12 10 7 17 11 17 7 0 -3 11 -1 25 4 24 9 54 16 100 24 11 2
49 11 85 19 36 9 106 23 155 31 50 9 99 18 110 20 53 10 267 35 360 41 60 4
301 16 320 16 105 -1 429 -12 455 -15 19 -3 64 -7 100 -10 36 -4 79 -8 95 -10
17 -3 53 -7 80 -11 65 -8 74 -10 175 -29 47 -8 96 -17 110 -20 14 -2 43 -9 65
-14 22 -6 51 -13 65 -16 26 -5 177 -44 195 -50 6 -2 15 -5 20 -6 6 -1 21 -7
35 -12 14 -5 32 -11 40 -13 8 -2 80 -27 160 -55 182 -66 392 -156 585 -251
134 -66 156 -74 205 -73 107 2 193 91 191 199 -1 54 -5 73 -19 87 -7 7 -12 16
-12 21 0 29 -149 114 -385 219 -33 15 -85 38 -115 52 -52 23 -343 135 -365
141 -5 1 -17 5 -25 8 -16 6 -178 57 -195 61 -5 2 -30 8 -55 15 -25 7 -52 15
-60 17 -8 2 -51 13 -95 24 -44 12 -100 25 -125 30 -65 12 -99 19 -150 30 -39
8 -128 22 -220 35 -31 5 -153 18 -285 31 -56 6 -692 14 -697 9z"/>
<path d="M3825 7022 c-1 -2 -51 -5 -111 -7 -60 -3 -120 -7 -134 -9 -14 -3 -59
-8 -100 -11 -41 -4 -82 -8 -90 -10 -8 -3 -37 -7 -65 -10 -27 -2 -61 -7 -75
-10 -14 -3 -36 -7 -50 -10 -55 -8 -100 -17 -210 -42 -63 -14 -122 -27 -130
-28 -8 -2 -15 -4 -15 -5 0 -1 -7 -3 -15 -5 -108 -22 -447 -136 -578 -193 -21
-9 -39 -16 -42 -17 -55 -17 -348 -165 -478 -242 -125 -74 -323 -203 -352 -230
-8 -7 -46 -37 -85 -65 -38 -28 -72 -54 -75 -58 -3 -3 -32 -28 -65 -55 -174
-145 -381 -356 -525 -534 -19 -24 -39 -48 -45 -55 -5 -6 -23 -29 -39 -51 -17
-22 -33 -42 -36 -45 -12 -11 -79 -109 -92 -136 -20 -41 -21 -99 -3 -154 24
-72 90 -120 175 -125 78 -6 127 25 195 119 31 43 173 224 203 258 28 32 70 77
158 169 65 69 186 182 249 234 26 22 53 45 59 50 14 13 104 83 142 110 15 11
33 26 40 33 7 6 17 12 21 12 5 0 18 8 29 18 60 54 294 193 489 290 277 138
578 244 905 318 63 14 129 27 145 29 17 2 71 10 120 19 79 13 144 21 250 32
228 22 578 22 800 -1 22 -2 65 -6 96 -9 48 -5 110 -14 279 -41 19 -3 55 -10
80 -16 25 -5 56 -12 70 -14 14 -3 36 -7 50 -10 14 -3 50 -12 80 -20 30 -9 87
-24 125 -35 71 -19 263 -83 300 -100 11 -5 31 -12 45 -16 14 -4 50 -18 80 -32
30 -13 71 -31 90 -40 311 -134 679 -368 941 -599 72 -63 321 -314 374 -377 28
-33 60 -71 73 -84 12 -14 22 -28 22 -31 0 -3 13 -20 28 -38 15 -17 37 -44 48
-60 12 -15 37 -48 55 -72 124 -162 374 -77 364 124 -3 45 -28 108 -55 135 -3
3 -25 32 -50 65 -42 56 -113 146 -135 171 -5 6 -32 38 -60 70 -81 96 -332 343
-440 433 -55 46 -109 90 -120 100 -11 9 -60 46 -110 81 -49 36 -91 68 -93 73
-2 4 -8 7 -13 7 -6 0 -15 5 -22 10 -45 38 -278 176 -432 256 -277 143 -672
292 -925 349 -8 1 -33 8 -55 13 -22 6 -51 13 -65 16 -22 4 -46 9 -145 30 -11
2 -40 7 -65 11 -25 4 -54 9 -65 11 -21 4 -77 12 -140 20 -22 2 -58 7 -80 10
-42 5 -70 7 -255 19 -114 8 -439 13 -445 7z"/>
<path d="M3729 6066 c-2 -2 -38 -7 -79 -11 -114 -11 -177 -19 -265 -36 -27 -5
-61 -11 -75 -14 -23 -4 -38 -7 -97 -20 -232 -50 -535 -159 -758 -272 -134 -68
-303 -166 -362 -209 -17 -13 -36 -24 -41 -24 -6 0 -12 -3 -14 -7 -1 -5 -48
-41 -103 -82 -55 -41 -105 -80 -111 -85 -6 -6 -36 -31 -65 -56 -69 -57 -285
-274 -324 -324 -16 -22 -37 -46 -46 -55 -54 -56 -211 -279 -286 -407 -64 -109
-166 -315 -172 -346 -1 -5 -12 -32 -25 -63 -14 -30 -36 -94 -51 -142 -15 -48
-30 -99 -35 -113 -9 -26 -45 -182 -54 -234 -3 -16 -9 -50 -13 -75 -4 -25 -8
-48 -8 -51 -2 -9 -16 -114 -18 -145 -2 -17 -6 -35 -9 -41 -4 -5 -3 -16 2 -24
5 -8 5 -21 0 -30 -9 -17 -6 -550 3 -649 12 -125 26 -226 52 -381 18 -101 18
-100 44 -215 12 -49 24 -101 27 -115 3 -14 15 -56 26 -95 12 -38 22 -75 24
-80 9 -47 83 -261 114 -330 64 -144 281 -147 351 -5 22 43 32 104 20 125 -3 5
-6 16 -7 25 -1 8 -23 76 -49 150 -49 140 -53 152 -80 260 -9 36 -20 79 -25 95
-12 38 -43 182 -54 245 -1 8 -5 31 -9 50 -8 36 -11 58 -22 165 -4 33 -9 71
-11 85 -16 95 -23 555 -10 655 4 28 7 57 7 65 1 27 22 184 33 236 77 380 231
718 473 1038 96 127 115 148 253 286 123 123 192 183 306 265 15 11 33 26 40
33 7 6 17 12 22 12 6 0 12 3 14 8 5 10 66 52 77 52 5 0 11 3 13 8 4 9 107 72
118 72 5 0 10 4 12 8 2 7 257 140 273 143 29 5 45 13 45 22 0 6 3 8 6 5 3 -4
36 6 72 21 119 49 325 112 447 137 138 28 177 35 215 39 25 3 61 7 80 10 19 3
60 8 90 11 66 8 491 13 504 6 5 -3 28 -7 50 -8 145 -11 420 -58 443 -76 7 -5
16 -7 21 -4 11 6 302 -87 402 -128 77 -32 263 -119 270 -126 3 -3 19 -12 35
-20 17 -8 65 -36 108 -62 43 -27 81 -48 83 -48 3 0 14 -9 26 -20 12 -11 28
-20 35 -20 7 0 13 -4 13 -8 0 -4 15 -16 33 -27 17 -10 34 -22 37 -26 3 -4 28
-24 56 -45 111 -85 341 -300 404 -380 13 -16 95 -118 131 -162 24 -29 158
-233 176 -269 11 -21 34 -63 51 -94 17 -32 28 -60 25 -63 -4 -3 -1 -6 5 -6 7
0 12 -4 12 -10 0 -5 13 -37 30 -72 27 -58 76 -183 86 -218 2 -8 15 -53 30
-100 28 -92 49 -175 58 -230 3 -19 8 -45 10 -56 32 -155 47 -398 33 -539 -12
-114 -68 -254 -142 -353 -5 -8 -39 -44 -75 -80 -141 -145 -316 -227 -525 -247
-33 -4 -63 -8 -67 -11 -4 -3 -8 -2 -8 3 0 4 -24 8 -52 7 -102 -1 -260 41 -366
97 -183 99 -324 262 -382 444 -7 22 -17 51 -21 65 -8 24 -13 76 -24 240 -7 99
-9 113 -30 200 -21 88 -84 240 -129 312 -73 118 -191 250 -295 328 -18 14 -39
31 -46 38 -8 6 -17 12 -21 12 -4 0 -15 6 -23 14 -25 22 -159 88 -256 126 -22
9 -98 30 -127 35 -11 2 -27 6 -36 9 -94 28 -397 29 -520 2 -94 -20 -196 -53
-261 -85 -25 -11 -51 -21 -58 -21 -7 0 -13 -4 -13 -10 0 -5 -5 -10 -11 -10 -6
0 -43 -21 -82 -46 -133 -86 -230 -175 -316 -290 -28 -38 -55 -74 -59 -80 -15
-18 -100 -197 -116 -244 -40 -120 -59 -241 -59 -380 0 -95 10 -281 18 -321 2
-12 7 -45 9 -73 3 -28 8 -62 11 -76 3 -14 8 -36 10 -50 8 -47 16 -85 31 -145
8 -33 16 -69 18 -80 2 -11 6 -27 9 -35 3 -8 17 -51 31 -95 52 -170 79 -237
173 -427 151 -304 358 -583 602 -812 24 -22 53 -50 65 -61 27 -26 201 -173
241 -202 107 -80 126 -93 133 -93 5 0 17 -8 28 -17 23 -21 53 -40 74 -50 8 -3
26 -14 40 -24 34 -23 220 -118 300 -153 36 -16 79 -35 95 -42 33 -15 251 -94
275 -99 8 -2 53 -16 100 -30 119 -37 169 -41 216 -19 71 34 112 90 119 163 8
106 -44 186 -142 215 -265 79 -499 170 -678 266 -77 41 -253 151 -289 181 -6
5 -29 23 -51 40 -139 106 -326 282 -420 394 -22 26 -47 56 -56 65 -26 28 -163
221 -194 275 -16 28 -37 64 -47 80 -34 58 -128 256 -128 269 0 7 -3 16 -7 20
-10 9 -87 228 -98 276 -2 8 -10 45 -19 81 -35 154 -52 263 -62 409 -7 100 -6
279 1 310 3 14 8 35 11 48 36 172 162 349 329 461 78 52 112 69 200 99 113 38
170 46 305 45 153 -2 297 -43 424 -120 179 -109 306 -271 357 -455 19 -68 23
-104 34 -273 3 -49 7 -99 9 -110 61 -296 191 -517 412 -703 53 -44 166 -122
177 -122 5 0 21 -8 35 -19 68 -47 298 -120 432 -137 100 -13 313 -7 395 10 41
8 151 37 165 43 8 3 20 7 25 9 6 1 28 10 50 20 22 10 45 18 51 20 18 3 176 94
222 128 59 42 212 190 212 205 0 6 6 11 13 11 8 0 19 10 25 22 12 23 29 51 45
72 68 94 143 271 163 379 3 17 7 33 9 37 21 34 22 437 1 546 -2 11 -7 47 -11
79 -4 33 -9 69 -12 80 -2 11 -6 34 -8 50 -5 51 -79 332 -103 395 -3 8 -6 17
-6 20 -2 8 -37 104 -46 125 -5 11 -21 49 -35 84 -24 57 -102 221 -125 261 -5
8 -25 44 -46 80 -48 84 -127 204 -136 208 -5 2 -8 8 -8 13 0 9 -102 147 -140
190 -8 9 -37 43 -65 74 -97 113 -332 341 -400 387 -5 4 -26 20 -45 36 -248
201 -599 393 -935 514 -120 43 -117 42 -160 52 -16 4 -37 10 -45 14 -8 3 -19
6 -25 7 -5 1 -30 7 -55 14 -112 31 -226 55 -315 67 -22 3 -48 7 -57 10 -9 3
-45 7 -80 10 -35 2 -74 7 -88 11 -28 6 -585 15 -591 9z"/>
<path d="M3988 5095 c-2 -2 -55 -5 -118 -9 -154 -8 -182 -11 -363 -46 -59 -12
-118 -25 -130 -30 -34 -14 -166 -52 -173 -50 -4 1 -10 -2 -13 -7 -3 -4 -24
-14 -46 -22 -58 -20 -219 -94 -223 -103 -2 -5 -12 -8 -23 -8 -10 0 -19 -4 -19
-10 0 -5 -5 -10 -11 -10 -5 0 -52 -27 -104 -59 -354 -222 -633 -527 -810 -886
-62 -125 -141 -325 -129 -325 4 0 2 -6 -4 -12 -5 -7 -13 -26 -16 -43 -8 -37
-13 -58 -25 -110 -9 -37 -17 -81 -26 -145 -19 -125 -23 -347 -10 -540 14 -213
12 -198 36 -345 5 -33 12 -73 14 -90 2 -16 6 -41 9 -55 3 -14 11 -50 17 -80
70 -341 206 -694 383 -993 25 -43 46 -80 46 -82 0 -8 85 -140 92 -143 5 -2 8
-8 8 -13 0 -9 97 -158 110 -169 3 -3 19 -23 35 -45 144 -195 460 -533 529
-565 71 -32 185 -5 236 57 25 30 49 101 44 131 -16 99 -19 103 -145 233 -118
121 -213 227 -292 328 -84 107 -74 94 -127 171 -25 36 -48 66 -52 68 -5 2 -8
10 -8 17 0 8 -6 20 -12 27 -40 44 -288 494 -288 523 0 4 -6 21 -14 38 -18 41
-41 101 -41 107 0 3 -3 10 -6 15 -3 6 -12 33 -19 60 -7 28 -16 55 -20 60 -7
10 -58 203 -66 254 -3 14 -7 34 -10 44 -5 17 -13 60 -18 102 -1 11 -5 34 -9
50 -3 17 -9 57 -13 90 -3 33 -8 74 -10 90 -21 182 -21 510 1 615 2 13 7 42 10
65 4 22 11 58 17 80 6 22 12 45 14 52 17 85 97 275 173 408 31 53 127 191 165
235 35 40 212 216 246 244 56 45 188 136 199 136 6 0 11 3 11 8 0 4 35 25 78
47 42 22 79 42 82 46 3 3 14 8 25 12 20 5 130 49 170 67 64 29 289 83 405 97
36 4 155 8 265 7 176 0 244 -4 320 -20 11 -3 34 -7 50 -9 37 -6 55 -10 75 -17
8 -3 53 -16 100 -28 47 -13 90 -26 95 -29 6 -4 28 -13 50 -20 82 -28 253 -117
360 -187 253 -167 472 -406 601 -654 16 -30 33 -58 37 -61 5 -3 8 -10 8 -15
-1 -5 7 -29 18 -54 11 -25 20 -48 21 -52 0 -4 9 -28 20 -54 11 -25 22 -55 25
-67 2 -12 9 -40 15 -62 6 -22 13 -53 15 -69 2 -15 7 -35 9 -45 12 -40 26 -169
31 -279 2 -54 9 -90 23 -118 60 -118 222 -143 317 -49 26 27 60 85 49 85 -4 0
-2 6 3 13 13 17 6 205 -13 327 -10 66 -15 97 -21 120 -3 14 -7 34 -8 45 -1 11
-12 54 -24 95 -13 41 -24 80 -26 85 -3 15 -15 46 -31 83 -8 18 -14 37 -14 43
0 5 -20 51 -44 102 -24 50 -43 94 -42 97 0 3 -9 19 -22 37 -12 17 -22 36 -22
42 0 6 -4 11 -10 11 -5 0 -10 5 -10 10 0 23 -161 248 -234 329 -104 113 -243
240 -361 329 -12 10 -153 102 -180 119 -172 106 -482 229 -675 268 -114 23
-123 25 -165 30 -22 3 -56 8 -75 11 -19 3 -82 7 -140 10 -58 3 -115 6 -127 8
-13 2 -24 2 -25 1z"/>
<path d="M3893 3115 c-83 -39 -120 -103 -117 -205 2 -83 13 -218 19 -250 3
-14 7 -42 10 -62 11 -83 28 -153 76 -303 122 -388 378 -750 714 -1015 113 -89
96 -76 193 -138 208 -133 501 -243 752 -282 41 -6 86 -13 100 -16 59 -9 194
-17 310 -17 118 -1 317 10 329 17 3 2 29 7 56 10 163 21 223 50 261 125 44 88
13 205 -69 258 -47 31 -129 39 -208 22 -23 -6 -70 -12 -103 -15 -34 -2 -77 -7
-96 -9 -97 -12 -392 -1 -500 19 -19 3 -46 8 -60 10 -159 29 -366 104 -495 179
-37 22 -190 121 -195 126 -3 3 -27 24 -55 45 -51 40 -222 211 -263 262 -99
125 -213 326 -267 469 -32 85 -85 285 -90 340 -2 22 -6 58 -9 80 -3 22 -8 81
-10 130 -2 50 -10 104 -16 120 -38 99 -166 147 -267 100z"/>
</g>
</svg>
